name Walk9.mot
datacolumns 19
datarows 15
range 3.30300000 3.31700000
endheader

                time	   L_ground_force_vx	   L_ground_force_vy	   L_ground_force_vz	   L_ground_force_px	   L_ground_force_py	   L_ground_force_pz	   R_ground_force_vx	   R_ground_force_vy	   R_ground_force_vz	   R_ground_force_px	   R_ground_force_py	   R_ground_force_pz	   L_ground_torque_x	   L_ground_torque_y	   L_ground_torque_z	   R_ground_torque_x	   R_ground_torque_y	   R_ground_torque_z	
          3.30300000	          0.00000000	          0.00000000	         -0.00000000	         -0.00000000	          0.00000000	         -0.00000000	         27.70607691	        105.64705880	         -0.79875002	          0.18760383	          0.00000000	          0.05185892	          0.00000000	          0.00000000	          0.00000000	          0.00000000	         -4.95964225	          0.00000000	
          3.30400000	          0.00000000	          0.00000000	         -0.00000000	         -0.00000000	          0.00000000	         -0.00000000	         26.53449868	         99.91592523	         -0.63137082	          0.18348519	          0.00000000	          0.05054292	          0.00000000	          0.00000000	          0.00000000	          0.00000000	         -4.76753595	          0.00000000	
          3.30500000	          0.00000000	          0.00000000	         -0.00000000	         -0.00000000	          0.00000000	         -0.00000000	         25.37270804	         94.32622509	         -0.47498839	          0.17922645	          0.00000000	          0.04919566	          0.00000000	          0.00000000	          0.00000000	          0.00000000	         -4.57563273	          0.00000000	
          3.30600000	          0.00000000	          0.00000000	         -0.00000000	         -0.00000000	          0.00000000	         -0.00000000	         24.22248261	         88.88149381	         -0.32937078	          0.17483175	          0.00000000	          0.04781879	          0.00000000	          0.00000000	          0.00000000	          0.00000000	         -4.38430766	          0.00000000	
          3.30700000	          0.00000000	          0.00000000	         -0.00000000	         -0.00000000	          0.00000000	         -0.00000000	         23.08559184	         83.58504300	         -0.19426255	          0.17030609	          0.00000000	          0.04641422	          0.00000000	          0.00000000	          0.00000000	          0.00000000	         -4.19393815	          0.00000000	
          3.30800000	          0.00000000	          0.00000000	         -0.00000000	         -0.00000000	          0.00000000	         -0.00000000	         21.96378835	         78.43994544	         -0.06938562	          0.16565545	          0.00000000	          0.04498409	          0.00000000	          0.00000000	          0.00000000	          0.00000000	         -4.00490187	          0.00000000	
          3.30900000	          0.00000000	          0.00000000	         -0.00000000	         -0.00000000	          0.00000000	         -0.00000000	         20.85879835	         73.44901966	          0.04555959	          0.16088679	          0.00000000	          0.04353080	          0.00000000	          0.00000000	          0.00000000	          0.00000000	         -3.81757432	          0.00000000	
          3.31000000	          0.00000000	          0.00000000	         -0.00000000	         -0.00000000	          0.00000000	         -0.00000000	         19.77231141	         68.61481498	          0.15089271	          0.15600823	          0.00000000	          0.04205702	          0.00000000	          0.00000000	          0.00000000	          0.00000000	         -3.63232632	          0.00000000	
          3.31100000	          0.00000000	          0.00000000	         -0.00000000	         -0.00000000	          0.00000000	         -0.00000000	         18.70597002	         63.93959699	          0.24695196	          0.15102902	          0.00000000	          0.04056570	          0.00000000	          0.00000000	          0.00000000	          0.00000000	         -3.44952142	          0.00000000	
          3.31200000	          0.00000000	          0.00000000	         -0.00000000	         -0.00000000	          0.00000000	         -0.00000000	         17.66135910	         59.42533360	          0.33409260	          0.14595968	          0.00000000	          0.03906005	          0.00000000	          0.00000000	          0.00000000	          0.00000000	         -3.26951344	          0.00000000	
          3.31300000	          0.00000000	          0.00000000	         -0.00000000	         -0.00000000	          0.00000000	         -0.00000000	         16.63999566	         55.07368000	          0.41268521	          0.14081200	          0.00000000	          0.03754359	          0.00000000	          0.00000000	          0.00000000	          0.00000000	         -3.09264403	          0.00000000	
          3.31400000	          0.00000000	          0.00000000	         -0.00000000	         -0.00000000	          0.00000000	         -0.00000000	         15.64331826	         50.88596077	          0.48311356	          0.13559909	          0.00000000	          0.03602014	          0.00000000	          0.00000000	          0.00000000	          0.00000000	         -2.91923995	          0.00000000	
          3.31500000	          0.00000000	          0.00000000	         -0.00000000	         -0.00000000	          0.00000000	         -0.00000000	         14.67267531	         46.86314678	          0.54577190	          0.13033545	          0.00000000	          0.03449376	          0.00000000	          0.00000000	          0.00000000	          0.00000000	         -2.74960998	          0.00000000	
          3.31600000	          0.00000000	          0.00000000	         -0.00000000	         -0.00000000	          0.00000000	         -0.00000000	         13.72931140	         43.00582566	          0.60106161	          0.12503695	          0.00000000	          0.03296877	          0.00000000	          0.00000000	          0.00000000	          0.00000000	         -2.58404143	          0.00000000	
          3.31700000	          0.00000000	          0.00000000	         -0.00000000	         -0.00000000	          0.00000000	         -0.00000000	         12.81435145	         39.31416693	          0.64938726	          0.11972085	          0.00000000	          0.03144970	          0.00000000	          0.00000000	          0.00000000	          0.00000000	         -2.42279651	          0.00000000	
